<?xml version="1.0" encoding="UTF-8" standalone="no"?>
<!DOCTYPE svg PUBLIC "-//W3C//DTD SVG 1.1//EN"
 "http://www.w3.org/Graphics/SVG/1.1/DTD/svg11.dtd">
<!-- Generated by graphviz version 2.43.0 (0)
 -->
<!-- Title: %3 Pages: 1 -->
<svg width="969pt" height="260pt"
 viewBox="0.00 0.00 968.97 260.00" xmlns="http://www.w3.org/2000/svg" xmlns:xlink="http://www.w3.org/1999/xlink">
<g id="graph0" class="graph" transform="scale(1 1) rotate(0) translate(4 256)">
<title>%3</title>
<polygon fill="white" stroke="transparent" points="-4,4 -4,-256 964.97,-256 964.97,4 -4,4"/>
<!-- [root] github_repository.example (orphan) -->
<g id="node1" class="node">
<title>[root] github_repository.example (orphan)</title>
<polygon fill="none" stroke="black" points="464.47,-108 258.47,-108 258.47,-72 464.47,-72 464.47,-108"/>
<text text-anchor="middle" x="361.47" y="-86.3" font-family="Times,serif" font-size="14.00">github_repository.example</text>
</g>
<!-- [root] provider[&quot;registry.terraform.io/integrations/github&quot;] -->
<g id="node4" class="node">
<title>[root] provider[&quot;registry.terraform.io/integrations/github&quot;]</title>
<polygon fill="none" stroke="black" points="358.47,-36 0.03,-18 358.47,0 716.91,-18 358.47,-36"/>
<text text-anchor="middle" x="358.47" y="-14.3" font-family="Times,serif" font-size="14.00">provider[&quot;registry.terraform.io/integrations/github&quot;]</text>
</g>
<!-- [root] github_repository.example (orphan)&#45;&gt;[root] provider[&quot;registry.terraform.io/integrations/github&quot;] -->
<g id="edge1" class="edge">
<title>[root] github_repository.example (orphan)&#45;&gt;[root] provider[&quot;registry.terraform.io/integrations/github&quot;]</title>
<path fill="none" stroke="black" d="M360.73,-71.7C360.4,-63.98 360,-54.71 359.63,-46.11"/>
<polygon fill="black" stroke="black" points="363.13,-45.95 359.2,-36.1 356.14,-46.25 363.13,-45.95"/>
</g>
<!-- [root] github_repository.github&#45;repo (expand) -->
<g id="node2" class="node">
<title>[root] github_repository.github&#45;repo (expand)</title>
<polygon fill="none" stroke="black" points="909.97,-108 680.97,-108 680.97,-72 909.97,-72 909.97,-108"/>
<text text-anchor="middle" x="795.47" y="-86.3" font-family="Times,serif" font-size="14.00">github_repository.github&#45;repo</text>
</g>
<!-- [root] github_repository.github&#45;repo (expand)&#45;&gt;[root] provider[&quot;registry.terraform.io/integrations/github&quot;] -->
<g id="edge2" class="edge">
<title>[root] github_repository.github&#45;repo (expand)&#45;&gt;[root] provider[&quot;registry.terraform.io/integrations/github&quot;]</title>
<path fill="none" stroke="black" d="M689.13,-71.97C615.8,-60.22 519.36,-44.77 449.57,-33.59"/>
<polygon fill="black" stroke="black" points="449.9,-30.1 439.47,-31.98 448.79,-37.01 449.9,-30.1"/>
</g>
<!-- [root] var.is&#45;test -->
<g id="node5" class="node">
<title>[root] var.is&#45;test</title>
<polygon fill="none" stroke="black" points="954.97,-36 873.97,-36 873.97,0 960.97,0 960.97,-30 954.97,-36"/>
<polyline fill="none" stroke="black" points="954.97,-36 954.97,-30 "/>
<polyline fill="none" stroke="black" points="960.97,-30 954.97,-30 "/>
<text text-anchor="middle" x="917.47" y="-14.3" font-family="Times,serif" font-size="14.00">var.is&#45;test</text>
</g>
<!-- [root] github_repository.github&#45;repo (expand)&#45;&gt;[root] var.is&#45;test -->
<g id="edge3" class="edge">
<title>[root] github_repository.github&#45;repo (expand)&#45;&gt;[root] var.is&#45;test</title>
<path fill="none" stroke="black" d="M825.32,-71.88C841.42,-62.64 861.47,-51.13 878.76,-41.21"/>
<polygon fill="black" stroke="black" points="880.58,-44.2 887.51,-36.19 877.1,-38.13 880.58,-44.2"/>
</g>
<!-- [root] var.repo_name -->
<g id="node6" class="node">
<title>[root] var.repo_name</title>
<polygon fill="none" stroke="black" points="849.97,-36 734.97,-36 734.97,0 855.97,0 855.97,-30 849.97,-36"/>
<polyline fill="none" stroke="black" points="849.97,-36 849.97,-30 "/>
<polyline fill="none" stroke="black" points="855.97,-30 849.97,-30 "/>
<text text-anchor="middle" x="795.47" y="-14.3" font-family="Times,serif" font-size="14.00">var.repo_name</text>
</g>
<!-- [root] github_repository.github&#45;repo (expand)&#45;&gt;[root] var.repo_name -->
<g id="edge4" class="edge">
<title>[root] github_repository.github&#45;repo (expand)&#45;&gt;[root] var.repo_name</title>
<path fill="none" stroke="black" d="M795.47,-71.7C795.47,-63.98 795.47,-54.71 795.47,-46.11"/>
<polygon fill="black" stroke="black" points="798.97,-46.1 795.47,-36.1 791.97,-46.1 798.97,-46.1"/>
</g>
<!-- [root] github_repository.repo (expand) -->
<g id="node3" class="node">
<title>[root] github_repository.repo (expand)</title>
<polygon fill="none" stroke="black" points="662.47,-108 484.47,-108 484.47,-72 662.47,-72 662.47,-108"/>
<text text-anchor="middle" x="573.47" y="-86.3" font-family="Times,serif" font-size="14.00">github_repository.repo</text>
</g>
<!-- [root] github_repository.repo (expand)&#45;&gt;[root] provider[&quot;registry.terraform.io/integrations/github&quot;] -->
<g id="edge5" class="edge">
<title>[root] github_repository.repo (expand)&#45;&gt;[root] provider[&quot;registry.terraform.io/integrations/github&quot;]</title>
<path fill="none" stroke="black" d="M521.15,-71.97C488.46,-61.32 446.42,-47.63 413.27,-36.84"/>
<polygon fill="black" stroke="black" points="414.32,-33.5 403.73,-33.73 412.15,-40.16 414.32,-33.5"/>
</g>
<!-- [root] github_repository.repo (expand)&#45;&gt;[root] var.is&#45;test -->
<g id="edge6" class="edge">
<title>[root] github_repository.repo (expand)&#45;&gt;[root] var.is&#45;test</title>
<path fill="none" stroke="black" d="M662.66,-73.44C733.79,-60.94 826.51,-44.41 864.1,-36.04"/>
<polygon fill="black" stroke="black" points="864.98,-39.43 873.9,-33.72 863.37,-32.62 864.98,-39.43"/>
</g>
<!-- [root] github_repository.repo (expand)&#45;&gt;[root] var.repo_name -->
<g id="edge7" class="edge">
<title>[root] github_repository.repo (expand)&#45;&gt;[root] var.repo_name</title>
<path fill="none" stroke="black" d="M627.49,-71.97C658.92,-62.06 698.7,-49.51 731.66,-39.12"/>
<polygon fill="black" stroke="black" points="732.72,-42.46 741.21,-36.11 730.62,-35.78 732.72,-42.46"/>
</g>
<!-- [root] provider[&quot;registry.terraform.io/integrations/github&quot;] (close) -->
<g id="node7" class="node">
<title>[root] provider[&quot;registry.terraform.io/integrations/github&quot;] (close)</title>
<ellipse fill="none" stroke="black" cx="573.47" cy="-162" rx="315.44" ry="18"/>
<text text-anchor="middle" x="573.47" y="-158.3" font-family="Times,serif" font-size="14.00">[root] provider[&quot;registry.terraform.io/integrations/github&quot;] (close)</text>
</g>
<!-- [root] provider[&quot;registry.terraform.io/integrations/github&quot;] (close)&#45;&gt;[root] github_repository.example (orphan) -->
<g id="edge8" class="edge">
<title>[root] provider[&quot;registry.terraform.io/integrations/github&quot;] (close)&#45;&gt;[root] github_repository.example (orphan)</title>
<path fill="none" stroke="black" d="M522.69,-144.23C492.72,-134.34 454.57,-121.74 422.91,-111.29"/>
<polygon fill="black" stroke="black" points="423.9,-107.93 413.31,-108.12 421.71,-114.58 423.9,-107.93"/>
</g>
<!-- [root] provider[&quot;registry.terraform.io/integrations/github&quot;] (close)&#45;&gt;[root] github_repository.github&#45;repo (expand) -->
<g id="edge9" class="edge">
<title>[root] provider[&quot;registry.terraform.io/integrations/github&quot;] (close)&#45;&gt;[root] github_repository.github&#45;repo (expand)</title>
<path fill="none" stroke="black" d="M626.65,-144.23C658.17,-134.29 698.32,-121.63 731.56,-111.15"/>
<polygon fill="black" stroke="black" points="732.7,-114.46 741.19,-108.12 730.6,-107.79 732.7,-114.46"/>
</g>
<!-- [root] provider[&quot;registry.terraform.io/integrations/github&quot;] (close)&#45;&gt;[root] github_repository.repo (expand) -->
<g id="edge10" class="edge">
<title>[root] provider[&quot;registry.terraform.io/integrations/github&quot;] (close)&#45;&gt;[root] github_repository.repo (expand)</title>
<path fill="none" stroke="black" d="M573.47,-143.7C573.47,-135.98 573.47,-126.71 573.47,-118.11"/>
<polygon fill="black" stroke="black" points="576.97,-118.1 573.47,-108.1 569.97,-118.1 576.97,-118.1"/>
</g>
<!-- [root] root -->
<g id="node8" class="node">
<title>[root] root</title>
<ellipse fill="none" stroke="black" cx="573.47" cy="-234" rx="58.49" ry="18"/>
<text text-anchor="middle" x="573.47" y="-230.3" font-family="Times,serif" font-size="14.00">[root] root</text>
</g>
<!-- [root] root&#45;&gt;[root] provider[&quot;registry.terraform.io/integrations/github&quot;] (close) -->
<g id="edge11" class="edge">
<title>[root] root&#45;&gt;[root] provider[&quot;registry.terraform.io/integrations/github&quot;] (close)</title>
<path fill="none" stroke="black" d="M573.47,-215.7C573.47,-207.98 573.47,-198.71 573.47,-190.11"/>
<polygon fill="black" stroke="black" points="576.97,-190.1 573.47,-180.1 569.97,-190.1 576.97,-190.1"/>
</g>
</g>
</svg>
